<svg width="36" height="13" viewBox="0 0 36 13" fill="none" xmlns="http://www.w3.org/2000/svg">
<rect width="36" height="13" fill="white"/>
<path d="M0 8V0.92H1.08V8H0ZM1.44 8V0.92H2.52V8H1.44ZM2.88 8V0.92H3.6V8H2.88ZM1.128 9.044H2.016C2.312 9.044 2.532 9.12 2.676 9.272C2.828 9.416 2.904 9.604 2.904 9.836C2.904 10.06 2.832 10.244 2.688 10.388C2.544 10.532 2.328 10.604 2.04 10.604H1.452V11.828H1.128V9.044ZM2.004 10.328C2.204 10.328 2.348 10.284 2.436 10.196C2.532 10.116 2.58 10 2.58 9.848C2.58 9.696 2.532 9.576 2.436 9.488C2.34 9.392 2.2 9.344 2.016 9.344H1.452V10.328H2.004ZM3.96094 8V0.92H4.32094V8H3.96094ZM5.04094 8V0.92H5.76094V8H5.04094ZM6.48094 8V0.92H7.56094V8H6.48094ZM5.88094 11.876C5.81694 11.876 5.75694 11.852 5.70094 11.804C5.65294 11.748 5.62894 11.688 5.62894 11.624C5.62894 11.552 5.65294 11.492 5.70094 11.444C5.75694 11.396 5.81694 11.372 5.88094 11.372C5.95294 11.372 6.01294 11.396 6.06094 11.444C6.11694 11.492 6.14494 11.552 6.14494 11.624C6.14494 11.688 6.11694 11.748 6.06094 11.804C6.01294 11.852 5.95294 11.876 5.88094 11.876ZM7.92188 8V0.92H8.28188V8H7.92188ZM8.64188 8V0.92H9.00188V8H8.64188ZM10.0819 8V0.92H10.8019V8H10.0819ZM10.3459 11.012H9.44588L9.16988 11.828H8.85788L9.87788 8.996H9.91388L10.9459 11.828H10.6219L10.3459 11.012ZM10.2619 10.772L9.90188 9.716L9.52988 10.772H10.2619ZM11.8828 8V0.92H12.2428V8H11.8828ZM12.9628 8V0.92H13.6828V8H12.9628ZM14.4028 8V0.92H15.4828V8H14.4028ZM13.8028 11.876C13.7388 11.876 13.6788 11.852 13.6228 11.804C13.5748 11.748 13.5508 11.688 13.5508 11.624C13.5508 11.552 13.5748 11.492 13.6228 11.444C13.6788 11.396 13.7388 11.372 13.8028 11.372C13.8748 11.372 13.9348 11.396 13.9828 11.444C14.0388 11.492 14.0668 11.552 14.0668 11.624C14.0668 11.688 14.0388 11.748 13.9828 11.804C13.9348 11.852 13.8748 11.876 13.8028 11.876ZM15.8438 8V0.92H16.5638V8H15.8438ZM17.6438 8V0.92H18.0038V8H17.6438ZM18.3638 8V0.92H19.4438V8H18.3638ZM16.9598 9.044H17.7758C18.0958 9.044 18.3278 9.116 18.4718 9.26C18.6238 9.396 18.6998 9.592 18.6998 9.848C18.6998 10.008 18.6478 10.16 18.5438 10.304C18.4398 10.448 18.3038 10.544 18.1358 10.592L18.7838 11.828H18.4358L17.8118 10.604H17.2718V11.828H16.9598V9.044ZM17.8118 10.328C18.0038 10.328 18.1478 10.284 18.2438 10.196C18.3318 10.116 18.3758 10 18.3758 9.848C18.3758 9.696 18.3318 9.572 18.2438 9.476C18.1478 9.388 18.0038 9.344 17.8118 9.344H17.2718V10.328H17.8118ZM19.8047 8V0.92H20.1647V8H19.8047ZM20.8847 8V0.92H21.6047V8H20.8847ZM22.3247 8V0.92H23.4047V8H22.3247ZM21.7247 11.876C21.6607 11.876 21.6007 11.852 21.5447 11.804C21.4967 11.748 21.4727 11.688 21.4727 11.624C21.4727 11.552 21.4967 11.492 21.5447 11.444C21.6007 11.396 21.6607 11.372 21.7247 11.372C21.7967 11.372 21.8567 11.396 21.9047 11.444C21.9607 11.492 21.9887 11.552 21.9887 11.624C21.9887 11.688 21.9607 11.748 21.9047 11.804C21.8567 11.852 21.7967 11.876 21.7247 11.876ZM23.7656 8V0.92H24.4856V8H23.7656ZM24.8456 8V0.92H25.9256V8H24.8456ZM27.0056 8V0.92H27.3656V8H27.0056ZM25.5536 9.32H24.7736V9.044H26.6936V9.32H25.8776V11.828H25.5536V9.32ZM27.7266 8V0.92H28.0866V8H27.7266ZM28.8066 8V0.92H29.5266V8H28.8066ZM30.2466 8V0.92H31.3266V8H30.2466ZM29.6466 11.876C29.5826 11.876 29.5226 11.852 29.4666 11.804C29.4186 11.748 29.3946 11.688 29.3946 11.624C29.3946 11.552 29.4186 11.492 29.4666 11.444C29.5226 11.396 29.5826 11.372 29.6466 11.372C29.7186 11.372 29.7786 11.396 29.8266 11.444C29.8826 11.492 29.9106 11.552 29.9106 11.624C29.9106 11.688 29.8826 11.748 29.8266 11.804C29.7786 11.852 29.7186 11.876 29.6466 11.876ZM31.6875 8V0.92H32.4075V8H31.6875ZM33.4875 8V0.92H33.8475V8H33.4875ZM34.2075 8V0.92H34.5675V8H34.2075ZM32.7795 9.044H33.1395V9.08C33.1235 9.096 33.1115 9.116 33.1035 9.14C33.1035 9.156 33.1035 9.192 33.1035 9.248V10.232H34.1835V9.044H34.5555V9.08C34.5395 9.096 34.5275 9.116 34.5195 9.14C34.5195 9.156 34.5195 9.192 34.5195 9.248V11.828H34.1835V10.508H33.1035V11.828H32.7795V9.044Z" fill="black"/>
</svg>
